<svg xmlns="http://www.w3.org/2000/svg" width="48" height="19" viewBox="0 0 48 19"><style>.a{fill:none;stroke:rgb(0%,0%,0%);}</style><path d="M120.9 227.6C132.2 227.8 132.3 222.9 151.4 219.8 164.2 217.8 179.6 216.4 197.5 215.5L173.4 194.2C202.6 197.9 229 204 252.8 212.7 288.4 225.6 315.9 231.3 315.9 246 315.9 260.7 288.4 259.8 252.8 271.5 229 279.3 202.6 286.4 173.4 292.8L197.5 271.5C181.5 272 166.7 270.6 152.9 267.3 141.3 264.5 132 250 120.9 251 96.8 253 74.1 263.8 52.8 283.6 59.4 275.7 64.9 268.6 69.1 262.3 73.4 256.1 76.5 250.6 78.4 246 81 241.7 79.6 236.8 73.9 231.3 68.2 225.7 62.8 219.5 57.6 212.7 74.3 222.1 95.4 227.1 120.9 227.6ZM120.9 227.6" class="a"/><path d="M271.4 266.6C268.2 263.4 265.8 260.1 264.2 256.6 262.4 252.9 261.5 249 261.5 244.9 261.5 237.2 264.8 229.1 271.4 220.5" class="a"/><path d="M42.4 8.4C42.4 8.9 42 9.3 41.5 9.3 41 9.3 40.7 8.9 40.7 8.4 40.7 7.9 41 7.5 41.5 7.5 42 7.5 42.4 7.9 42.4 8.4ZM42.4 8.4" style=" stroke:none;fill:rgb(0%,0%,0%)"/></svg>
