<svg xmlns="http://www.w3.org/2000/svg" xmlns:se="http://svg-edit.googlecode.com" xmlns:xlink="http://www.w3.org/1999/xlink" xmlns:dc="http://purl.org/dc/elements/1.1/" xmlns:cc="http://creativecommons.org/ns#" xmlns:rdf="http://www.w3.org/1999/02/22-rdf-syntax-ns#" xmlns:inkscape="http://www.inkscape.org/namespaces/inkscape" width="777" height="480" style="">
                                    <title>my vector image</title>
                                    <!-- Created with Vector Paint - http://www.vectorpaint.yaks.com/ https://chrome.google.com/webstore/detail/hnbpdiengicdefcjecjbnjnoifekhgdo -->
                                    <rect id="backgroundrect" width="100%" height="100%" x="0" y="0" fill="#FFFFFF" stroke="none"/>
                                <g style="" class="currentLayer"><title>Layer 1</title><path fill="none" stroke="#222222" stroke-width="2" stroke-linejoin="round" stroke-dashoffset="" fill-rule="nonzero" marker-start="" marker-mid="" marker-end="" id="svg_1" d="M103.69914755409545,154.26077287559914 C104.868542544302,141.85026071228828 107.60983839865085,129.02786379160452 113.72838067086371,118.37834790581026 C119.57531670536811,111.38468186746441 129.01240370342336,111.59378815994141 136.89394256273258,109.20116105360444 C125.85084047140089,106.24005686136272 115.542606976455,100.99709757032224 105.42833346098186,95.44970984119504 C88.87319541527292,88.26449664816104 72.0218169691336,98.61732070179083 57.09926622255673,105.88041365223287 C46.01959037747132,111.17418236325707 35.059738524520206,117.4194135032823 23.129230610570765,120.04081531574477 C15.302968788750222,114.60356914638963 21.83919438112512,99.17796778210392 27.34260643272354,92.66481969129948 C34.31061091198723,83.67000347629391 44.62489203550684,79.02305082362265 52.17899500491029,70.80935160781283 C55.50217858098385,59.20775062855717 40.19020569744952,56.35344117461176 33.31107100332319,51.794961358483974 C22.6434511483375,46.965326736381996 13.579488044983849,39.05491181271285 5.469688177728954,30.222836737787805 C24.3033267174547,29.125437325836593 40.96336037485541,40.81962072707592 57.9572822826347,47.9198635711572 C67.14903169991287,51.24694658341505 75.81831893492289,55.92641788754092 84.4127307685475,60.55525100440908 C88.35314605779007,60.53535687489339 101.72427381767264,63.46038544495004 100.39168625565162,58.967581162802766 C90.36888993274493,58.52319332058712 91.37352012337418,45.558221805040226 98.11837722657495,40.418041066525724 C108.03198155301195,32.61728513767197 120.11772750029178,28.01198095410797 128.3708569430683,17.67928452916669 C131.99159629824524,14.772920326316125 133.89697289756077,7.663788947060057 136.95706517242468,5.4206246611815105 C150.15196332334938,15.732352860412588 157.87192075513605,31.998551246491807 165.1518956957657,47.42386462846446 C177.00635292916024,50.102014523203735 188.9785093122174,52.27429624355036 201.06124312016922,52.929923004020196 C212.86066459855348,58.324586707576934 222.9354923204483,67.72651651352601 232.17398827210476,77.27460901829241 C239.1746904188552,82.55577655729546 241.0403955087256,96.9262340765865 231.5242301241759,99.80915496249585 C208.04605175656314,112.45436492761384 181.8304224876458,116.31995151530535 155.97624993809987,117.5351746098113 C152.3337251101082,117.27835665304194 149.16208249712983,117.6781695031852 149.13767405027514,122.46674718741751 C146.86042666848502,129.28668984125918 145.92951994998919,137.21196309561898 141.6424751388431,142.76488475513983 C136.9111748016792,141.55493095863142 141.39342492121963,127.6187663339888 136.53433827013149,134.24025804093546 C126.97657889961461,144.61479751762826 115.48079196212998,152.39534020143032 103.69913198748392,159.353210816598 C103.69913198748392,157.65574188067262 103.69911642087251,155.95814841185538 103.69914755409545,154.26078065890502 L103.69914755409545,154.26077287559914 z" style="color: rgb(0, 0, 0);"/></g></svg>
