
<svg class = "halacska" version="1.1" xmlns="http://www.w3.org/2000/svg" xmlns:xlink="http://www.w3.org/1999/xlink" x="0px" y="0px"
	 viewBox="0 0 650 304" style="enable-background:new 0 0 650 304"  top="0pt" left="0%" z-index="0" rotateX="(0deg)" rotateY="(0deg)" rotateZ="(0deg)" xml:space="preserve">
<style type="text/css">
	.st6{fill:#FBE098;stroke:#1D1D1B;stroke-width:2;stroke-miterlimit:10;}
	.st7{fill:#F8CC88;}
	.st8{fill:#1D1D1B;}
	.st9{fill:none;stroke:#1D1D1B;stroke-width:2;stroke-miterlimit:10;}
	.st10{fill:#FFFFFF;}
</style>
<g id="Hal_szín">
	<path class="st6" d="M160.3,124.4c-13.4,0.5-30.5-2.9-41.5-9s-52.5-33.9-58.6-37s-29.6-13-34.5-1.4s14.1,34.9,25.1,49.8
		s18.6,31.6,16.5,38.5s-8.6,18.4-16.5,30.9S28,231.4,25.9,244.5s12.4,19.9,12.4,19.9s7.1-6.1,17.1-9s28.2-21.8,28.2-21.8
		s27-25.4,44.3-33.6s54.1,4.5,54.1,4.5c-8.9,9.4-26.1,3.3-30.9,8.5s1.8,10.9,1.8,10.9c-6.4,3-4.9,11.6-4.9,11.6
		c-9.9,4.6-7.3,11.6-5.8,13.3s-9.5,7.6-5.1,10.1s61.3-10.4,71.8-17.8s13.7-3.3,14.6-2.6c1.9,1.4,18.2,13.6,23.6,16.1
		c13.6,6.4,20,10,60,19c36.8,8.3,119.6,2.5,119.6,2.5c39.1-5,106.6-36.8,116.5-42.4s35.1-19.4,43.9-23.3s8-11.6,15.9-15.6
		s11.8-14.6,11.8-14.6c0.4-4.1-1.4-9.3-4.8-12.9s-19.3-7.9-22.9-11s-8.6-8.9-12.9-11.6c-9.6-6-35.6-17.5-43.6-21.4
		s-2.1-0.1-27.1-19.5c-25-19.4-65.9-29.8-94.1-31.9c-6-0.4-13.7-1-22.6-0.4l-2.3,0c0,0-12.9,0-24.1-14.6s-36.6-31-48.9-29.8
		s-6.3,3.9-6.8,7.3s-2.1,3.9-2.9,13c0,0-4.4,2.1-6.3,8.8s-8.9,4.8-9.8,6.5s0,4.9-1.6,6.8s-10,0.9-10.9,3s-1.1,5.8-2.8,5.9
		s-11.1,0.6-11.3,2.1s6.5,1.5,2.8,2.9s-27.4,7.3-44.8,13.6S188.5,105.5,160.3,124.4"/>
	<path class="st7" d="M149.4,228.4c-1.8-2.3-0.2,5.4-0.2,5.4c-9.9,4.6-7.3,11.6-5.8,13.3s-9.5,7.6-5.1,10.1
		c4.4,2.5,61.3-10.4,71.8-17.8s13.7-3.3,14.6-2.6c1.9,1.4,18.2,13.6,23.6,16.1c13.6,6.4,20,10,60,19c36.8,8.3,119.6,2.5,119.6,2.5
		c39.1-5,106.6-36.8,116.5-42.4s35.1-19.4,43.9-23.3s8-11.6,15.9-15.6c0,0,0.1-6.9-17.3,0.8s-45.9,23.1-78.3,38
		c-37.7,17.3-111.7,26.1-181,22.3c-72.7-4-83.7-39.7-107.3-33c-23.7,6.7-59.3,14.7-65.7,10.3C154.6,231.7,150.9,230.5,149.4,228.4z"
		/>
	<path class="st7" d="M509.4,114.6c0,0-54.5,50.7,13,116.5C522.4,231.1,477.1,171.3,509.4,114.6z"/>
	<path class="st7" d="M33.8,231.8c0,4.5-1.3,9.5,8.5,11s35.5-18.5,54.5-34s31.8-9.8,31.8-9.8c-17.2,8.3-44.2,33.6-44.2,33.6
		s-18.3,18.9-28.3,21.8s-17.1,9-17.1,9s-14.5-6.8-12.4-19.9c0.6-4,3.8-11.2,7.7-19L33.8,231.8z"/>
	<path class="st7" d="M30.8,74c0,0,10.2,30.3,28.2,42.8s27.5,30.2,22,37.7s-18.5,24.3-18.5,24.3s6.3-13.8,5.3-18.6
		s-0.4-6.2-12.4-27.1s-18.2-22.4-24.1-34s-8.7-19.8-5.4-23.3S30.8,74,30.8,74z"/>
</g>
<g id="Hal_uszony">
	<g>
		<path class="st8" d="M485.4,216.5l-24.2,0.4c-8.1,0.1-16.2,0.3-24.2,0.5c-4,0.1-8.1,0.2-12.1,0.5c-2,0.1-3.9,0.6-5.9,1.1
			c-1.9,0.5-3.9,1.1-5.8,1.7c-3.8,1.3-7.6,2.8-11.1,4.6c-3.5,1.9-7,4.1-9.1,7.4l-0.1-0.6c2.6,2.7,5.7,4.9,9,6.7
			c3.3,1.8,6.9,3.1,10.6,3.8c0.9,0.2,1.9,0.3,2.8,0.4c0.9,0.1,1.9,0.1,2.8,0.2c0.9,0.1,1.9,0,2.8,0c0.9,0,1.9,0,2.8-0.1
			c3.8-0.3,7.6-0.6,11.4-0.9l22.8-2.1c3.8-0.3,7.6-0.6,11.4-0.9c1.9-0.1,3.8-0.2,5.7-0.3c1,0,1.9,0,2.9,0c0.5,0,1,0,1.4,0.1
			c0.2,0,0.5,0.1,0.7,0.1c0.2,0.1,0.5,0.1,0.6,0.3c-0.1-0.2-0.4-0.2-0.6-0.3c-0.2,0-0.5-0.1-0.7-0.1c-0.5,0-1,0-1.4,0
			c-1,0-1.9,0-2.9,0.1c-1.9,0.1-3.8,0.2-5.7,0.4c-3.8,0.3-7.6,0.7-11.4,1.1l-22.7,2.4c-3.8,0.4-7.6,0.8-11.4,1
			c-0.9,0.1-1.9,0.1-2.9,0.1c-1,0-1.9,0.1-2.9,0c-1-0.1-1.9-0.1-2.9-0.2c-1-0.1-1.9-0.3-2.9-0.4c-3.8-0.7-7.5-2.1-10.9-3.9
			c-3.4-1.8-6.6-4-9.3-6.8l-0.3-0.3l0.2-0.3c2.3-3.6,6-5.8,9.5-7.7c3.6-1.9,7.4-3.4,11.3-4.7c1.9-0.6,3.9-1.2,5.9-1.7
			c2-0.5,4-0.9,6-1.1c4.1-0.3,8.1-0.4,12.1-0.5c8.1-0.2,16.2-0.2,24.2-0.3L485.4,216.5z"/>
	</g>
</g>
<g id="hal_kontúr">
	<path class="st9" d="M160.3,124.4c-13.4,0.5-30.5-2.9-41.5-9s-52.5-33.9-58.6-37s-29.6-13-34.5-1.4s14.1,34.9,25.1,49.8
		s18.6,31.6,16.5,38.5s-8.6,18.4-16.5,30.9S28,231.4,25.9,244.5s12.4,19.9,12.4,19.9s7.1-6.1,17.1-9s28.2-21.8,28.2-21.8
		s27-25.4,44.3-33.6s54.1,4.5,54.1,4.5c-8.9,9.4-26.1,3.3-30.9,8.5s1.8,10.9,1.8,10.9c-6.4,3-4.9,11.6-4.9,11.6
		c-9.9,4.6-7.3,11.6-5.8,13.3s-9.5,7.6-5.1,10.1s61.3-10.4,71.8-17.8s13.7-3.3,14.6-2.6c1.9,1.4,18.2,13.6,23.6,16.1
		c13.6,6.4,20,10,60,19c36.8,8.3,119.6,2.5,119.6,2.5c39.1-5,106.6-36.8,116.5-42.4s35.1-19.4,43.9-23.3s8-11.6,15.9-15.6
		s11.8-14.6,11.8-14.6c0.4-4.1-1.4-9.3-4.8-12.9s-19.3-7.9-22.9-11s-8.6-8.9-12.9-11.6c-9.6-6-35.6-17.5-43.6-21.4
		s-2.1-0.1-27.1-19.5c-25-19.4-65.9-29.8-94.1-31.9c-6-0.4-13.7-1-22.6-0.4l-2.3,0c0,0-12.9,0-24.1-14.6s-36.6-31-48.9-29.8
		s-6.3,3.9-6.8,7.3s-2.1,3.9-2.9,13c0,0-4.4,2.1-6.3,8.8s-8.9,4.8-9.8,6.5s0,4.9-1.6,6.8s-10,0.9-10.9,3s-1.1,5.8-2.8,5.9
		s-11.1,0.6-11.3,2.1s6.5,1.5,2.8,2.9s-27.4,7.3-44.8,13.6S188.5,105.5,160.3,124.4"/>
	<g>
		<path class="st8" d="M508.3,114.3c-3.7,4.1-6.8,8.6-9.5,13.4c-2.7,4.7-4.9,9.8-6.5,14.9c-3.3,10.3-4.1,21.3-2.4,32
			c0.9,5.3,2.4,10.5,4.3,15.6c1.1,2.5,2,5,3.3,7.4c0.6,1.2,1.2,2.4,1.9,3.6l2,3.5c5.5,9.4,12.5,18,19.9,26.1
			c-8.3-7.2-15.9-15.5-21.9-24.9l-2.2-3.5c-0.7-1.2-1.3-2.4-2-3.7c-1.4-2.4-2.4-5-3.6-7.6c-2.1-5.2-3.7-10.6-4.6-16.1
			c-0.8-5.6-1.1-11.2-0.5-16.8c0.6-5.6,1.8-11.1,3.7-16.4c1.9-5.3,4.4-10.3,7.5-14.9C500.6,122.3,504.1,117.9,508.3,114.3z"/>
	</g>
</g>
<g id="Hal_szem">
	<g>
		<path class="st10" d="M553.9,157.9c0.1,7.7,5.1,11.4,11.3,11.4s11.3-5.1,11.3-11.4c0-6.3-5.1-11.2-11.3-11.4
			C556.9,146.2,553.8,152.4,553.9,157.9z"/>
		<path class="st8" d="M553.9,157.9c0.1,1.5,0.3,3,0.8,4.4c0.5,1.4,1.3,2.7,2.3,3.8c2.1,2.1,5.2,3,8.1,2.9c2.9-0.1,5.7-1.3,7.6-3.4
			c1.9-2.1,3-4.9,3-7.7c0-2.8-1.1-5.6-3.1-7.6c-2-2-4.8-3.3-7.7-3.4c-2.9-0.2-6,0.6-8.1,2.8C554.7,151.9,553.9,155,553.9,157.9z
			 M553.9,157.9c-0.1-3,0.8-6.1,2.8-8.4c1-1.1,2.3-2.1,3.7-2.6c1.4-0.6,3-0.8,4.5-0.8c3.1,0,6.2,1.1,8.6,3.2
			c1.2,1.1,2.1,2.4,2.8,3.9c0.6,1.5,1,3.1,1,4.7c0,1.6-0.3,3.2-0.9,4.7c-0.6,1.5-1.5,2.8-2.7,3.9c-2.3,2.2-5.5,3.4-8.6,3.3
			c-3.1-0.1-6.2-1.2-8.2-3.5C554.7,164,553.9,160.9,553.9,157.9z"/>
	</g>
	<path class="st8" d="M564.2,156.7c0.1,3.2,2.4,4.8,4.6,4.8c2.2,0,3.9-2.2,3.9-4.8c0-2.7-1.7-4.8-3.9-4.8
		C566.7,151.9,564.2,153.6,564.2,156.7z"/>
	<g>
		<path class="st8" d="M572.4,166.8c1.7-1.3,2.9-3.1,3.8-4.9c0.9-1.9,1.7-3.8,1.4-5.8c-0.1-4.1-2.4-7.9-6-9.6
			c-1.8-0.9-3.8-1.4-5.8-1.5c-2-0.2-4.1,0.1-5.9,0.9c-1.8,0.8-3.3,2.3-4.2,4.1c-1,1.8-1.4,3.9-1.7,6c-0.1-2.1,0.2-4.3,1-6.3
			c0.4-1,1-2,1.7-2.8c0.7-0.9,1.7-1.5,2.6-2.1c2-1,4.3-1.4,6.5-1.2c2.2,0.1,4.4,0.6,6.4,1.6c2,1,3.8,2.6,4.9,4.5
			c1.1,2,1.7,4.2,1.7,6.4c0,1.1-0.1,2.3-0.5,3.3c-0.4,1-0.9,2-1.4,2.9c-0.6,0.9-1.2,1.8-2,2.6C574.2,165.6,573.4,166.3,572.4,166.8z
			"/>
	</g>
</g>
</svg>
