<?xml version="1.0" encoding="UTF-8" standalone="no"?>
<!DOCTYPE svg PUBLIC "-//W3C//DTD SVG 1.1//EN" "http://www.w3.org/Graphics/SVG/1.1/DTD/svg11.dtd">
<svg class="halacskam" version="1.1" xmlns="http://www.w3.org/2000/svg" xmlns:xlink="http://www.w3.org/1999/xlink" preserveAspectRatio="xMidYMid meet" viewBox="51.80871605258595 193.21726344923027 267.1205673758866 102.58156028368793" width="263.12" height="98.58"><defs><path d="M120.89 227.55C132.26 227.76 132.28 222.85 151.43 219.84C164.2 217.83 179.55 216.38 197.49 215.49L173.38 194.22C202.57 197.88 229.05 204.03 252.81 212.66C288.45 225.6 315.93 231.27 315.93 245.99C315.93 260.71 288.45 259.82 252.81 271.52C229.05 279.32 202.57 286.42 173.38 292.8L197.49 271.52C181.52 272.02 166.67 270.6 152.94 267.28C141.25 264.46 131.99 250.03 120.89 250.95C96.78 252.96 74.09 263.84 52.81 283.58C59.43 275.68 64.87 268.6 69.12 262.33C73.38 256.07 76.45 250.62 78.34 245.99C81.04 241.73 79.55 236.82 73.88 231.26C68.2 225.71 62.77 219.51 57.58 212.66C74.26 222.11 95.36 227.08 120.89 227.55Z" id="g2pwyyehKB"></path><path d="M271.39 266.56C268.25 263.36 265.85 260.05 264.2 256.64C262.38 252.86 261.46 248.96 261.46 244.93C261.46 237.24 264.77 229.09 271.39 220.46" id="a1bfXPkDpe"></path><path d="M291.25 239.96C291.25 242.7 289.03 244.93 286.29 244.93C283.55 244.93 281.32 242.7 281.32 239.96C281.32 237.22 283.55 235 286.29 235C289.03 235 291.25 237.22 291.25 239.96Z" id="b5fJhQivg"></path></defs><g><g><g><use xlink:href="#g2pwyyehKB" opacity="1" fill-opacity="0" stroke="#000000" stroke-width="1" stroke-opacity="1"></use></g></g><g><g><use xlink:href="#a1bfXPkDpe" opacity="1" fill-opacity="0" stroke="#000000" stroke-width="1" stroke-opacity="1"></use></g></g><g><use xlink:href="#b5fJhQivg" opacity="1" fill="#000000" fill-opacity="1"></use></g></g></svg>