
<svg class="halacska" xmlns="http://www.w3.org/2000/svg" xmlns:xlink="http://www.w3.org/1999/xlink" width="48pt" height="19pt" top="0pt" left="0px" transform="scale(0.2)" z-index="0" rotateX="(0deg)" rotateY="(0deg)" rotateZ="(0deg)" viewBox="0 0 48 19" version="1.1">
<g id="surface1">
<path style="fill:none;stroke-width:1;stroke-linecap:butt;stroke-linejoin:miter;stroke:rgb(0%,0%,0%);stroke-opacity:1;stroke-miterlimit:4;" d="M 120.882823 227.55236 C 132.247168 227.769947 132.291909 222.852491 151.418906 219.849796 C 164.192609 217.826241 179.561319 216.368411 197.480295 215.476306 L 173.38699 194.218099 C 202.558457 197.873553 229.045433 204.031253 252.803177 212.669439 C 288.439793 225.594081 315.933454 231.273091 315.933454 245.981942 C 315.933454 260.712553 288.439793 259.820448 252.803177 271.526605 C 229.045433 279.337963 202.558457 286.431285 173.38699 292.806571 L 197.480295 271.526605 C 181.529945 272.027054 166.675763 270.590983 152.940118 267.283667 C 141.262583 264.455042 131.978719 250.029052 120.882823 250.964675 C 96.767147 252.966471 74.10557 263.845799 52.808609 283.580901 C 59.430353 275.682508 64.866447 268.610945 69.116891 262.322693 C 73.367335 256.0562 76.4545 250.616536 78.356014 245.981942 C 81.040505 241.739004 79.564035 236.821548 73.881863 231.251332 C 68.19969 225.702875 62.785967 219.501657 57.573581 212.669439 C 74.262165 222.112696 95.357789 227.07367 120.882823 227.55236 Z M 120.882823 227.55236 " transform="matrix(0.174614,0,0,0.179526,-8.463316,-34.687559)"/>
<path style="fill:none;stroke-width:1;stroke-linecap:butt;stroke-linejoin:miter;stroke:rgb(0%,0%,0%);stroke-opacity:1;stroke-miterlimit:4;" d="M 271.393276 266.565631 C 268.239 263.367109 265.845329 260.059793 264.212263 256.643684 C 262.400232 252.857678 261.46066 248.962878 261.46066 244.915768 C 261.46066 237.234962 264.771532 229.097225 271.393276 220.459038 " transform="matrix(0.174614,0,0,0.179526,-8.463316,-34.687559)"/>
<path style=" stroke:none;fill-rule:nonzero;fill:rgb(0%,0%,0%);fill-opacity:1;" d="M 42.390625 8.390625 C 42.390625 8.882812 42.003906 9.28125 41.527344 9.28125 C 41.046875 9.28125 40.660156 8.882812 40.660156 8.390625 C 40.660156 7.898438 41.046875 7.5 41.527344 7.5 C 42.003906 7.5 42.390625 7.898438 42.390625 8.390625 Z M 42.390625 8.390625 "/>
</g>
</svg>
